<svg width="393" height="68" viewBox="0 0 393 68" fill="none" xmlns="http://www.w3.org/2000/svg">
<rect width="393" height="68" rx="34" fill="#99CC00"/>
<path d="M59.2764 24.5156V43H56.8389V26.5215H47.7236V43H45.2734V24.5156H59.2764ZM69.0645 43.2539C68.1081 43.2539 67.2406 43.0931 66.4619 42.7715C65.6917 42.4414 65.0273 41.9801 64.4688 41.3877C63.9186 40.7952 63.4954 40.0928 63.1992 39.2803C62.903 38.4678 62.7549 37.5791 62.7549 36.6143V36.0811C62.7549 34.9639 62.9199 33.9694 63.25 33.0977C63.5801 32.2174 64.0286 31.4727 64.5957 30.8633C65.1628 30.2539 65.806 29.7926 66.5254 29.4795C67.2448 29.1663 67.9896 29.0098 68.7598 29.0098C69.7415 29.0098 70.5879 29.179 71.2988 29.5176C72.0182 29.8561 72.6064 30.3301 73.0635 30.9395C73.5205 31.5404 73.859 32.2513 74.0791 33.0723C74.2992 33.8848 74.4092 34.7734 74.4092 35.7383V36.792H64.1514V34.875H72.0605V34.6973C72.0267 34.0879 71.8997 33.4954 71.6797 32.9199C71.4681 32.3444 71.1296 31.8704 70.6641 31.498C70.1986 31.1257 69.5638 30.9395 68.7598 30.9395C68.2266 30.9395 67.7357 31.0537 67.2871 31.2822C66.8385 31.5023 66.4535 31.8324 66.1318 32.2725C65.8102 32.7126 65.5605 33.25 65.3828 33.8848C65.2051 34.5195 65.1162 35.2516 65.1162 36.0811V36.6143C65.1162 37.266 65.2051 37.8796 65.3828 38.4551C65.569 39.0221 65.8356 39.5215 66.1826 39.9531C66.5381 40.3848 66.9655 40.7233 67.4648 40.9688C67.9727 41.2142 68.5482 41.3369 69.1914 41.3369C70.0208 41.3369 70.7233 41.1676 71.2988 40.8291C71.8743 40.4906 72.3779 40.0378 72.8096 39.4707L74.2314 40.6006C73.9352 41.0492 73.5586 41.4766 73.1016 41.8828C72.6445 42.2891 72.0817 42.6191 71.4131 42.873C70.7529 43.127 69.9701 43.2539 69.0645 43.2539ZM79.5 31.9043V48.2812H77.1387V29.2637H79.2969L79.5 31.9043ZM88.7549 36.0176V36.2842C88.7549 37.2829 88.6364 38.2096 88.3994 39.0645C88.1624 39.9108 87.8154 40.6471 87.3584 41.2734C86.9098 41.8997 86.3555 42.3864 85.6953 42.7334C85.0352 43.0804 84.2777 43.2539 83.4229 43.2539C82.5511 43.2539 81.7809 43.11 81.1123 42.8223C80.4437 42.5345 79.8766 42.1156 79.4111 41.5654C78.9456 41.0153 78.5732 40.3551 78.2939 39.585C78.0231 38.8148 77.8369 37.9473 77.7354 36.9824V35.5605C77.8369 34.5449 78.0273 33.6351 78.3066 32.8311C78.5859 32.027 78.9541 31.3415 79.4111 30.7744C79.8766 30.1989 80.4395 29.763 81.0996 29.4668C81.7598 29.1621 82.5215 29.0098 83.3848 29.0098C84.248 29.0098 85.014 29.179 85.6826 29.5176C86.3512 29.8477 86.9141 30.3216 87.3711 30.9395C87.8281 31.5573 88.1709 32.2979 88.3994 33.1611C88.6364 34.016 88.7549 34.9681 88.7549 36.0176ZM86.3936 36.2842V36.0176C86.3936 35.332 86.3216 34.6888 86.1777 34.0879C86.0339 33.4785 85.8096 32.9453 85.5049 32.4883C85.2087 32.0228 84.8278 31.6589 84.3623 31.3965C83.8968 31.1257 83.3424 30.9902 82.6992 30.9902C82.1068 30.9902 81.5905 31.0918 81.1504 31.2949C80.7188 31.498 80.3506 31.7731 80.0459 32.1201C79.7412 32.4587 79.4915 32.848 79.2969 33.2881C79.1107 33.7197 78.971 34.1683 78.8779 34.6338V37.9219C79.0472 38.5143 79.2842 39.0729 79.5889 39.5977C79.8936 40.1139 80.2998 40.5329 80.8076 40.8545C81.3154 41.1676 81.9544 41.3242 82.7246 41.3242C83.3594 41.3242 83.9053 41.193 84.3623 40.9307C84.8278 40.6598 85.2087 40.2917 85.5049 39.8262C85.8096 39.3607 86.0339 38.8275 86.1777 38.2266C86.3216 37.6172 86.3936 36.9697 86.3936 36.2842ZM97.4512 43.2539C96.4948 43.2539 95.6273 43.0931 94.8486 42.7715C94.0785 42.4414 93.4141 41.9801 92.8555 41.3877C92.3053 40.7952 91.8822 40.0928 91.5859 39.2803C91.2897 38.4678 91.1416 37.5791 91.1416 36.6143V36.0811C91.1416 34.9639 91.3066 33.9694 91.6367 33.0977C91.9668 32.2174 92.4154 31.4727 92.9824 30.8633C93.5495 30.2539 94.1927 29.7926 94.9121 29.4795C95.6315 29.1663 96.3763 29.0098 97.1465 29.0098C98.1283 29.0098 98.9746 29.179 99.6855 29.5176C100.405 29.8561 100.993 30.3301 101.45 30.9395C101.907 31.5404 102.246 32.2513 102.466 33.0723C102.686 33.8848 102.796 34.7734 102.796 35.7383V36.792H92.5381V34.875H100.447V34.6973C100.413 34.0879 100.286 33.4954 100.066 32.9199C99.8548 32.3444 99.5163 31.8704 99.0508 31.498C98.5853 31.1257 97.9505 30.9395 97.1465 30.9395C96.6133 30.9395 96.1224 31.0537 95.6738 31.2822C95.2253 31.5023 94.8402 31.8324 94.5186 32.2725C94.1969 32.7126 93.9473 33.25 93.7695 33.8848C93.5918 34.5195 93.5029 35.2516 93.5029 36.0811V36.6143C93.5029 37.266 93.5918 37.8796 93.7695 38.4551C93.9557 39.0221 94.2223 39.5215 94.5693 39.9531C94.9248 40.3848 95.3522 40.7233 95.8516 40.9688C96.3594 41.2142 96.9349 41.3369 97.5781 41.3369C98.4076 41.3369 99.11 41.1676 99.6855 40.8291C100.261 40.4906 100.765 40.0378 101.196 39.4707L102.618 40.6006C102.322 41.0492 101.945 41.4766 101.488 41.8828C101.031 42.2891 100.468 42.6191 99.7998 42.873C99.1396 43.127 98.3568 43.2539 97.4512 43.2539ZM108.077 39.2803L114.412 29.2637H116.773V43H114.412V32.9834L108.077 43H105.741V29.2637H108.077V39.2803ZM113.13 24.2871H115.034C115.034 24.9473 114.882 25.5355 114.577 26.0518C114.272 26.5596 113.837 26.9574 113.27 27.2451C112.702 27.5329 112.03 27.6768 111.251 27.6768C110.075 27.6768 109.144 27.3636 108.458 26.7373C107.781 26.1025 107.442 25.2858 107.442 24.2871H109.347C109.347 24.7865 109.491 25.2266 109.778 25.6074C110.066 25.9883 110.557 26.1787 111.251 26.1787C111.928 26.1787 112.41 25.9883 112.698 25.6074C112.986 25.2266 113.13 24.7865 113.13 24.2871ZM126.143 29.2637V43H123.781V29.2637H126.143ZM130.751 29.2637V31.168H119.262V29.2637H130.751ZM135.601 39.2803L141.936 29.2637H144.297V43H141.936V32.9834L135.601 43H133.265V29.2637H135.601V39.2803ZM157.068 29.2637V43H154.72V29.2637H157.068ZM166.082 29.2637L159.569 37.1348H156.281L155.926 35.0781H158.617L163.226 29.2637H166.082ZM163.556 43L158.503 36.7793L160.014 35.0781L166.539 43H163.556ZM177.571 39.2803L183.906 29.2637H186.268V43H183.906V32.9834L177.571 43H175.235V29.2637H177.571V39.2803ZM199.356 35.2178V37.1221H192.095V35.2178H199.356ZM192.59 29.2637V43H190.241V29.2637H192.59ZM201.261 29.2637V43H198.899V29.2637H201.261ZM210.541 41.3242C211.1 41.3242 211.616 41.21 212.09 40.9814C212.564 40.7529 212.953 40.4398 213.258 40.042C213.562 39.6357 213.736 39.1745 213.778 38.6582H216.013C215.97 39.4707 215.695 40.2282 215.188 40.9307C214.688 41.6247 214.032 42.1875 213.22 42.6191C212.407 43.0423 211.514 43.2539 210.541 43.2539C209.508 43.2539 208.607 43.0719 207.837 42.708C207.075 42.3441 206.44 41.8447 205.933 41.21C205.433 40.5752 205.057 39.8473 204.803 39.0264C204.557 38.1969 204.435 37.321 204.435 36.3984V35.8652C204.435 34.9427 204.557 34.071 204.803 33.25C205.057 32.4206 205.433 31.6885 205.933 31.0537C206.44 30.4189 207.075 29.9196 207.837 29.5557C208.607 29.1917 209.508 29.0098 210.541 29.0098C211.616 29.0098 212.555 29.2298 213.359 29.6699C214.163 30.1016 214.794 30.694 215.251 31.4473C215.716 32.1921 215.97 33.0384 216.013 33.9863H213.778C213.736 33.4193 213.575 32.9072 213.296 32.4502C213.025 31.9932 212.653 31.6292 212.179 31.3584C211.713 31.0791 211.167 30.9395 210.541 30.9395C209.822 30.9395 209.216 31.0833 208.726 31.3711C208.243 31.6504 207.858 32.0312 207.57 32.5137C207.291 32.9876 207.088 33.5166 206.961 34.1006C206.842 34.6761 206.783 35.2643 206.783 35.8652V36.3984C206.783 36.9993 206.842 37.5918 206.961 38.1758C207.079 38.7598 207.278 39.2887 207.558 39.7627C207.845 40.2367 208.23 40.6175 208.713 40.9053C209.204 41.1846 209.813 41.3242 210.541 41.3242ZM224.252 29.2637V43H221.891V29.2637H224.252ZM228.86 29.2637V31.168H217.371V29.2637H228.86ZM233.52 31.9043V48.2812H231.158V29.2637H233.316L233.52 31.9043ZM242.774 36.0176V36.2842C242.774 37.2829 242.656 38.2096 242.419 39.0645C242.182 39.9108 241.835 40.6471 241.378 41.2734C240.929 41.8997 240.375 42.3864 239.715 42.7334C239.055 43.0804 238.297 43.2539 237.442 43.2539C236.571 43.2539 235.8 43.11 235.132 42.8223C234.463 42.5345 233.896 42.1156 233.431 41.5654C232.965 41.0153 232.593 40.3551 232.313 39.585C232.043 38.8148 231.856 37.9473 231.755 36.9824V35.5605C231.856 34.5449 232.047 33.6351 232.326 32.8311C232.605 32.027 232.974 31.3415 233.431 30.7744C233.896 30.1989 234.459 29.763 235.119 29.4668C235.779 29.1621 236.541 29.0098 237.404 29.0098C238.268 29.0098 239.034 29.179 239.702 29.5176C240.371 29.8477 240.934 30.3216 241.391 30.9395C241.848 31.5573 242.19 32.2979 242.419 33.1611C242.656 34.016 242.774 34.9681 242.774 36.0176ZM240.413 36.2842V36.0176C240.413 35.332 240.341 34.6888 240.197 34.0879C240.053 33.4785 239.829 32.9453 239.524 32.4883C239.228 32.0228 238.847 31.6589 238.382 31.3965C237.916 31.1257 237.362 30.9902 236.719 30.9902C236.126 30.9902 235.61 31.0918 235.17 31.2949C234.738 31.498 234.37 31.7731 234.065 32.1201C233.761 32.4587 233.511 32.848 233.316 33.2881C233.13 33.7197 232.991 34.1683 232.897 34.6338V37.9219C233.067 38.5143 233.304 39.0729 233.608 39.5977C233.913 40.1139 234.319 40.5329 234.827 40.8545C235.335 41.1676 235.974 41.3242 236.744 41.3242C237.379 41.3242 237.925 41.193 238.382 40.9307C238.847 40.6598 239.228 40.2917 239.524 39.8262C239.829 39.3607 240.053 38.8275 240.197 38.2266C240.341 37.6172 240.413 36.9697 240.413 36.2842ZM249.478 41.5781L253.299 29.2637H255.812L250.303 45.1201C250.176 45.4587 250.007 45.8226 249.795 46.2119C249.592 46.6097 249.329 46.9863 249.008 47.3418C248.686 47.6973 248.297 47.985 247.84 48.2051C247.391 48.4336 246.854 48.5479 246.228 48.5479C246.041 48.5479 245.804 48.5225 245.517 48.4717C245.229 48.4209 245.026 48.3786 244.907 48.3447L244.895 46.4404C244.962 46.4489 245.068 46.4574 245.212 46.4658C245.364 46.4827 245.47 46.4912 245.529 46.4912C246.062 46.4912 246.515 46.4193 246.888 46.2754C247.26 46.14 247.573 45.9072 247.827 45.5771C248.09 45.2555 248.314 44.8112 248.5 44.2441L249.478 41.5781ZM246.672 29.2637L250.239 39.9277L250.849 42.4033L249.16 43.2666L244.107 29.2637H246.672ZM265.829 39.877L270.501 29.2637H272.761L266.642 43H265.017L258.923 29.2637H261.183L265.829 39.877ZM260.497 29.2637V43H258.148V29.2637H260.497ZM271.085 43V29.2637H273.446V43H271.085ZM282.93 43.2539C281.973 43.2539 281.106 43.0931 280.327 42.7715C279.557 42.4414 278.893 41.9801 278.334 41.3877C277.784 40.7952 277.361 40.0928 277.064 39.2803C276.768 38.4678 276.62 37.5791 276.62 36.6143V36.0811C276.62 34.9639 276.785 33.9694 277.115 33.0977C277.445 32.2174 277.894 31.4727 278.461 30.8633C279.028 30.2539 279.671 29.7926 280.391 29.4795C281.11 29.1663 281.855 29.0098 282.625 29.0098C283.607 29.0098 284.453 29.179 285.164 29.5176C285.883 29.8561 286.472 30.3301 286.929 30.9395C287.386 31.5404 287.724 32.2513 287.944 33.0723C288.164 33.8848 288.274 34.7734 288.274 35.7383V36.792H278.017V34.875H285.926V34.6973C285.892 34.0879 285.765 33.4954 285.545 32.9199C285.333 32.3444 284.995 31.8704 284.529 31.498C284.064 31.1257 283.429 30.9395 282.625 30.9395C282.092 30.9395 281.601 31.0537 281.152 31.2822C280.704 31.5023 280.319 31.8324 279.997 32.2725C279.675 32.7126 279.426 33.25 279.248 33.8848C279.07 34.5195 278.981 35.2516 278.981 36.0811V36.6143C278.981 37.266 279.07 37.8796 279.248 38.4551C279.434 39.0221 279.701 39.5215 280.048 39.9531C280.403 40.3848 280.831 40.7233 281.33 40.9688C281.838 41.2142 282.413 41.3369 283.057 41.3369C283.886 41.3369 284.589 41.1676 285.164 40.8291C285.74 40.4906 286.243 40.0378 286.675 39.4707L288.097 40.6006C287.8 41.0492 287.424 41.4766 286.967 41.8828C286.51 42.2891 285.947 42.6191 285.278 42.873C284.618 43.127 283.835 43.2539 282.93 43.2539ZM300.335 35.2178V37.1221H293.073V35.2178H300.335ZM293.568 29.2637V43H291.22V29.2637H293.568ZM302.239 29.2637V43H299.878V29.2637H302.239ZM311.621 29.2637V43H309.26V29.2637H311.621ZM316.229 29.2637V31.168H304.74V29.2637H316.229ZM326.437 40.6514V33.5801C326.437 33.0384 326.326 32.5687 326.106 32.1709C325.895 31.7646 325.573 31.4515 325.142 31.2314C324.71 31.0114 324.177 30.9014 323.542 30.9014C322.95 30.9014 322.429 31.0029 321.98 31.2061C321.54 31.4092 321.193 31.6758 320.939 32.0059C320.694 32.3359 320.571 32.6914 320.571 33.0723H318.223C318.223 32.5814 318.35 32.0947 318.604 31.6123C318.857 31.1299 319.221 30.694 319.695 30.3047C320.178 29.9069 320.753 29.5938 321.422 29.3652C322.099 29.1283 322.852 29.0098 323.682 29.0098C324.68 29.0098 325.561 29.179 326.322 29.5176C327.092 29.8561 327.693 30.3682 328.125 31.0537C328.565 31.7308 328.785 32.5814 328.785 33.6055V40.0039C328.785 40.4609 328.823 40.9476 328.899 41.4639C328.984 41.9801 329.107 42.4245 329.268 42.7969V43H326.817C326.699 42.7292 326.606 42.3695 326.538 41.9209C326.47 41.4639 326.437 41.0407 326.437 40.6514ZM326.843 34.6719L326.868 36.3223H324.494C323.826 36.3223 323.229 36.3773 322.704 36.4873C322.179 36.5889 321.739 36.7454 321.384 36.957C321.028 37.1686 320.757 37.4352 320.571 37.7568C320.385 38.07 320.292 38.4382 320.292 38.8613C320.292 39.293 320.389 39.6865 320.584 40.042C320.779 40.3975 321.071 40.681 321.46 40.8926C321.858 41.0957 322.344 41.1973 322.92 41.1973C323.639 41.1973 324.274 41.0449 324.824 40.7402C325.374 40.4355 325.81 40.0632 326.132 39.623C326.462 39.1829 326.64 38.7555 326.665 38.3408L327.668 39.4707C327.609 39.8262 327.448 40.2197 327.186 40.6514C326.923 41.083 326.572 41.4977 326.132 41.8955C325.7 42.2848 325.184 42.6107 324.583 42.873C323.991 43.127 323.322 43.2539 322.577 43.2539C321.646 43.2539 320.829 43.0719 320.127 42.708C319.433 42.3441 318.891 41.8574 318.502 41.248C318.121 40.6302 317.931 39.9404 317.931 39.1787C317.931 38.4424 318.075 37.7949 318.362 37.2363C318.65 36.6693 319.065 36.1995 319.606 35.8271C320.148 35.4463 320.8 35.1585 321.562 34.9639C322.323 34.7692 323.174 34.6719 324.113 34.6719H326.843ZM340.376 39.877L345.048 29.2637H347.308L341.188 43H339.563L333.47 29.2637H335.729L340.376 39.877ZM335.044 29.2637V43H332.695V29.2637H335.044ZM345.632 43V29.2637H347.993V43H345.632Z" fill="black"/>
</svg>
