<svg width="21" height="21" viewBox="0 0 21 21" fill="none" xmlns="http://www.w3.org/2000/svg">
<g clip-path="url(#clip0_4_115)">
<path d="M20.775 15.9258C19.9933 14.448 17.2786 12.8456 17.1591 12.7755C16.8103 12.577 16.4463 12.4719 16.1057 12.4719C15.5992 12.4719 15.1846 12.7039 14.9335 13.1259C14.5364 13.6009 14.0439 14.156 13.9244 14.242C12.9994 14.8696 12.2753 14.7984 11.4741 13.9972L7.0025 9.5252C6.20636 8.72907 6.13317 7.99601 6.75646 7.07607C6.84366 6.95578 7.39881 6.46292 7.87377 6.06543C8.17665 5.88518 8.38454 5.61734 8.47564 5.28877C8.59671 4.85157 8.50756 4.3373 8.22181 3.83626C8.15446 3.72103 6.55129 1.006 5.07426 0.22466C4.79863 0.0786697 4.48796 0.00158691 4.17652 0.00158691C3.66341 0.00158691 3.18067 0.201691 2.81784 0.564136L1.82977 1.55181C0.267096 3.1141 -0.298567 4.88505 0.147579 6.81524C0.519757 8.42386 1.60437 10.1356 3.37182 11.9027L9.09658 17.6275C11.3335 19.8644 13.4662 20.9989 15.4353 20.9989C15.4353 20.9989 15.4353 20.9989 15.4357 20.9989C16.8839 20.9989 18.234 20.3834 19.4475 19.1699L20.4351 18.1822C21.0355 17.5823 21.1717 16.6752 20.775 15.9258Z" fill="black"/>
</g>
<defs>
<clipPath id="clip0_4_115">
<rect width="21" height="21" fill="white"/>
</clipPath>
</defs>
</svg>
